<?xml version="1.0" encoding="UTF-8"?>
<svg version="1.1" xmlns="http://www.w3.org/2000/svg" width="584" height="584">
<path d="M0 0 C1.31526672 -0.01052147 1.31526672 -0.01052147 2.65710449 -0.02125549 C5.47848698 -0.03869048 8.29965933 -0.04511009 11.12109375 -0.046875 C12.08667206 -0.04754974 13.05225037 -0.04822449 14.04708862 -0.04891968 C28.77323701 -0.03256901 43.0360727 0.61136646 57.55859375 3.203125 C59.08347412 3.45255859 59.08347412 3.45255859 60.63916016 3.70703125 C101.96842302 10.47512888 142.10368062 26.30910479 176.55859375 50.203125 C177.11015137 50.58194824 177.66170898 50.96077148 178.22998047 51.35107422 C186.5303112 57.06647826 194.35813203 63.15528481 201.9440918 69.79345703 C203.08033565 70.78554413 204.22304537 71.77025026 205.37036133 72.74951172 C218.09659041 83.68957544 230.46772033 95.76614598 240.55859375 109.203125 C241.7035244 110.67127732 242.84945763 112.13864803 243.99609375 113.60546875 C252.79548153 124.97204836 260.53053695 136.66955403 267.55859375 149.203125 C268.02217285 150.01797363 268.48575195 150.83282227 268.96337891 151.67236328 C285.68309549 181.28129126 295.91655272 213.77244111 301.55859375 247.203125 C301.74550781 248.2041626 301.93242188 249.2052002 302.125 250.23657227 C304.16412474 262.72530097 303.93315788 275.34803462 303.92919922 287.96850586 C303.92895827 291.96824598 303.96986928 295.96723702 304.0078125 299.96679688 C304.18403663 340.13410858 295.00487498 379.98164659 277.55859375 416.203125 C277.22859375 416.89341797 276.89859375 417.58371094 276.55859375 418.29492188 C264.28112817 443.83300947 248.88229299 467.41667562 229.55859375 488.203125 C228.4714008 489.47065802 227.3879727 490.74143131 226.30859375 492.015625 C217.86867046 501.66683358 208.61353551 510.26267834 198.55859375 518.203125 C196.84991195 519.64021078 195.14158705 521.077721 193.43359375 522.515625 C143.87344363 562.83574713 79.71343193 585.14036866 16.01831055 584.72460938 C12.12680662 584.70315649 8.237152 584.7245577 4.34570312 584.75 C-17.43760754 584.77515463 -38.78897954 582.4830878 -59.87890625 576.890625 C-61.03737061 576.59067627 -62.19583496 576.29072754 -63.3894043 575.98168945 C-92.4847105 568.273537 -121.49427563 556.18520789 -146.44140625 539.203125 C-147.46234375 538.51734375 -148.48328125 537.8315625 -149.53515625 537.125 C-157.40081586 531.76886036 -164.95633743 526.07617018 -172.44140625 520.203125 C-173.44429688 519.43097656 -174.4471875 518.65882813 -175.48046875 517.86328125 C-176.39570313 517.15042969 -177.3109375 516.43757812 -178.25390625 515.703125 C-179.06472656 515.0740625 -179.87554687 514.445 -180.7109375 513.796875 C-181.28199219 513.2709375 -181.85304688 512.745 -182.44140625 512.203125 C-182.44140625 511.543125 -182.44140625 510.883125 -182.44140625 510.203125 C-183.28396973 509.84734375 -183.28396973 509.84734375 -184.14355469 509.484375 C-186.96723283 507.90993143 -188.91755467 505.98627955 -191.20703125 503.703125 C-192.09648437 502.81625 -192.9859375 501.929375 -193.90234375 501.015625 C-194.82273437 500.0875 -195.743125 499.159375 -196.69140625 498.203125 C-197.62726563 497.275 -198.563125 496.346875 -199.52734375 495.390625 C-200.41164063 494.50375 -201.2959375 493.616875 -202.20703125 492.703125 C-203.42567871 491.48109375 -203.42567871 491.48109375 -204.66894531 490.234375 C-206.44140625 488.203125 -206.44140625 488.203125 -206.44140625 486.203125 C-207.10140625 486.203125 -207.76140625 486.203125 -208.44140625 486.203125 C-210.38671875 484.0859375 -210.38671875 484.0859375 -212.56640625 481.328125 C-213.65308594 479.97074219 -213.65308594 479.97074219 -214.76171875 478.5859375 C-216.44140625 476.203125 -216.44140625 476.203125 -216.44140625 474.203125 C-217.10140625 474.203125 -217.76140625 474.203125 -218.44140625 474.203125 C-220.34544848 471.7611832 -222.1257444 469.31347649 -223.87890625 466.765625 C-224.41459229 465.99283203 -224.95027832 465.22003906 -225.50219727 464.42382812 C-227.15772926 462.02305076 -228.8001701 459.61369059 -230.44140625 457.203125 C-231.14910156 456.17807861 -231.14910156 456.17807861 -231.87109375 455.13232422 C-258.8079391 415.98242218 -274.18622579 370.23764537 -279.44140625 323.203125 C-279.52359406 322.55292389 -279.60578186 321.90272278 -279.69046021 321.2328186 C-280.35795401 315.73862389 -280.61468441 310.3289683 -280.64453125 304.796875 C-280.65154556 303.92271942 -280.65855988 303.04856384 -280.66578674 302.1479187 C-280.68322784 299.3329346 -280.68964188 296.5181612 -280.69140625 293.703125 C-280.69208099 292.73949036 -280.69275574 291.77585571 -280.69345093 290.78302002 C-280.67668917 275.70777777 -280.07455001 261.08013258 -277.44140625 246.203125 C-277.26448242 245.17670898 -277.08755859 244.15029297 -276.90527344 243.09277344 C-271.56051951 212.75044848 -262.21439032 183.33675175 -247.44140625 156.203125 C-247.06161621 155.49043457 -246.68182617 154.77774414 -246.29052734 154.04345703 C-240.58771356 143.34752317 -234.41951576 133.11413726 -227.44140625 123.203125 C-226.95397949 122.50896484 -226.46655273 121.81480469 -225.96435547 121.09960938 C-224.46765012 118.98019418 -222.95803558 116.87081943 -221.44140625 114.765625 C-220.97226807 114.10796143 -220.50312988 113.45029785 -220.01977539 112.77270508 C-218.87744276 111.2113142 -217.66545707 109.7013122 -216.44140625 108.203125 C-215.78140625 108.203125 -215.12140625 108.203125 -214.44140625 108.203125 C-214.19390625 107.65140625 -213.94640625 107.0996875 -213.69140625 106.53125 C-212.19906151 103.75175793 -210.40468102 101.4216543 -208.44140625 98.953125 C-207.74015625 98.06109375 -207.03890625 97.1690625 -206.31640625 96.25 C-205.69765625 95.57453125 -205.07890625 94.8990625 -204.44140625 94.203125 C-203.78140625 94.203125 -203.12140625 94.203125 -202.44140625 94.203125 C-202.44140625 93.543125 -202.44140625 92.883125 -202.44140625 92.203125 C-201.78140625 92.203125 -201.12140625 92.203125 -200.44140625 92.203125 C-200.44140625 91.543125 -200.44140625 90.883125 -200.44140625 90.203125 C-199.78140625 90.203125 -199.12140625 90.203125 -198.44140625 90.203125 C-198.44140625 89.543125 -198.44140625 88.883125 -198.44140625 88.203125 C-197.78140625 88.203125 -197.12140625 88.203125 -196.44140625 88.203125 C-195.45140625 86.223125 -195.45140625 86.223125 -194.44140625 84.203125 C-193.78140625 84.203125 -193.12140625 84.203125 -192.44140625 84.203125 C-192.44140625 83.543125 -192.44140625 82.883125 -192.44140625 82.203125 C-191.78140625 82.203125 -191.12140625 82.203125 -190.44140625 82.203125 C-190.44140625 81.543125 -190.44140625 80.883125 -190.44140625 80.203125 C-189.78140625 80.203125 -189.12140625 80.203125 -188.44140625 80.203125 C-188.44140625 79.543125 -188.44140625 78.883125 -188.44140625 78.203125 C-187.78140625 78.203125 -187.12140625 78.203125 -186.44140625 78.203125 C-186.44140625 77.543125 -186.44140625 76.883125 -186.44140625 76.203125 C-184.72807871 74.61778798 -182.94451578 73.10771285 -181.12890625 71.640625 C-179.64970703 70.43212891 -179.64970703 70.43212891 -178.140625 69.19921875 C-175.44140625 67.203125 -175.44140625 67.203125 -172.44140625 66.203125 C-172.44140625 65.543125 -172.44140625 64.883125 -172.44140625 64.203125 C-170.00364777 61.8978774 -167.208441 59.99562984 -164.50390625 58.015625 C-163.66432373 57.39993652 -162.82474121 56.78424805 -161.9597168 56.14990234 C-146.47601486 45.01242875 -129.81821833 35.09942565 -112.44140625 27.203125 C-111.67505859 26.85088867 -110.90871094 26.49865234 -110.11914062 26.13574219 C-80.78958993 12.76730057 -50.4652947 4.66042894 -18.44140625 1.203125 C-17.46006966 1.07984329 -17.46006966 1.07984329 -16.45890808 0.95407104 C-10.95687081 0.2854104 -5.54007454 0.02977398 0 0 Z " fill="#2C3132" transform="translate(280.44140625,-0.203125)"/>
<path d="M0 0 C20.04404623 17.4846245 31.42066054 39.04821458 38.87890625 64.40625 C39.20890625 33.38625 39.53890625 2.36625 39.87890625 -29.59375 C59.34890625 -29.59375 78.81890625 -29.59375 98.87890625 -29.59375 C98.87890625 -0.55375 98.87890625 28.48625 98.87890625 58.40625 C121.31890625 58.40625 143.75890625 58.40625 166.87890625 58.40625 C166.87890625 75.89625 166.87890625 93.38625 166.87890625 111.40625 C145.09890625 111.40625 123.31890625 111.40625 100.87890625 111.40625 C114.50879581 132.60830042 127.50969734 143.47287739 151.87890625 149.40625 C156.82890625 150.06625 161.77890625 150.72625 166.87890625 151.40625 C166.87890625 169.22625 166.87890625 187.04625 166.87890625 205.40625 C149.46708636 205.40625 149.46708636 205.40625 141.94140625 203.71875 C141.09932617 203.53795898 140.25724609 203.35716797 139.38964844 203.17089844 C115.70370849 197.91829294 92.54785733 187.46219665 74.87890625 170.40625 C74.87890625 169.74625 74.87890625 169.08625 74.87890625 168.40625 C74.30527344 168.17421875 73.73164063 167.9421875 73.140625 167.703125 C57.29905641 158.61953126 48.12695663 132.91976741 43.44140625 116.34375 C42.91007504 114.36737574 42.38487463 112.38926892 41.87890625 110.40625 C41.21890625 110.73625 40.55890625 111.06625 39.87890625 111.40625 C37.39814084 111.51382337 34.94469769 111.56114154 32.46322632 111.56446838 C31.30297595 111.57187535 31.30297595 111.57187535 30.11928618 111.57943195 C27.51360839 111.5948552 24.90795533 111.60318059 22.30224609 111.61157227 C20.43990357 111.621147 18.57756324 111.63115684 16.71522522 111.64157104 C11.64733744 111.66867004 6.5794403 111.68965251 1.51151991 111.70957303 C-3.78029122 111.73140184 -9.07207334 111.75880569 -14.36386108 111.78562927 C-24.39003897 111.83559824 -34.41623292 111.88052144 -44.4424423 111.92365164 C-55.85462444 111.97298814 -67.26677747 112.02791954 -78.67893147 112.08333123 C-102.15962509 112.19721579 -125.64034662 112.30404069 -149.12109375 112.40625 C-147.69670446 114.66016868 -146.26771475 116.91093748 -144.8359375 119.16015625 C-144.23525452 120.1122699 -144.23525452 120.1122699 -143.62243652 121.08361816 C-134.20526028 135.84087599 -118.55297282 144.75011641 -101.73046875 148.8828125 C-97.52737675 149.72594772 -93.39987579 150.18414528 -89.12109375 150.40625 C-88.26644531 150.47070312 -87.41179687 150.53515625 -86.53125 150.6015625 C-67.32457052 151.40969768 -46.57989331 145.19582229 -32.12109375 132.40625 C-31.54085449 131.38450684 -30.96061523 130.36276367 -30.36279297 129.31005859 C-28.38617734 126.93476416 -27.32378611 126.44337134 -24.23799133 125.87823486 C-20.43401295 125.7102486 -16.65582648 125.73143573 -12.8515625 125.8203125 C-11.44625157 125.83151165 -10.04091712 125.84004845 -8.63557434 125.84603882 C-4.94750603 125.86888199 -1.26086926 125.92776179 2.42663574 125.9942627 C6.19373205 126.05578537 9.96106109 126.08307485 13.72851562 126.11328125 C21.11262984 126.17751328 28.49556701 126.27983327 35.87890625 126.40625 C34.62133564 128.95196241 33.36045369 131.49594422 32.09765625 134.0390625 C31.56930176 135.10991089 31.56930176 135.10991089 31.03027344 136.20239258 C18.92197914 160.544528 -0.21900009 179.6176635 -24.12109375 192.40625 C-25.33925781 193.06560547 -25.33925781 193.06560547 -26.58203125 193.73828125 C-44.5655319 202.67330129 -64.36495372 205.52444448 -84.18359375 205.65625 C-85.35543213 205.66575684 -86.52727051 205.67526367 -87.73461914 205.68505859 C-99.9027028 205.63901581 -111.27846295 203.70974065 -122.93359375 200.28125 C-123.96895264 199.97703125 -125.00431152 199.6728125 -126.07104492 199.359375 C-135.00043997 196.63000489 -143.04682129 193.06377184 -151.12109375 188.40625 C-152.12140625 187.83003906 -153.12171875 187.25382813 -154.15234375 186.66015625 C-164.86853423 180.14314715 -174.87299891 171.87098355 -183.12109375 162.40625 C-183.12109375 161.74625 -183.12109375 161.08625 -183.12109375 160.40625 C-183.78109375 160.40625 -184.44109375 160.40625 -185.12109375 160.40625 C-197.1360622 146.60602155 -203.18548065 129.68089585 -208.12109375 112.40625 C-208.45109375 143.42625 -208.78109375 174.44625 -209.12109375 206.40625 C-228.59109375 206.40625 -248.06109375 206.40625 -268.12109375 206.40625 C-268.12109375 150.63625 -268.12109375 94.86625 -268.12109375 37.40625 C-248.65109375 37.40625 -229.18109375 37.40625 -209.12109375 37.40625 C-208.62609375 49.78125 -208.62609375 49.78125 -208.12109375 62.40625 C-207.29609375 59.745625 -206.47109375 57.085 -205.62109375 54.34375 C-199.81814488 36.58633916 -189.75086652 20.33449034 -176.12109375 7.40625 C-175.46109375 7.40625 -174.80109375 7.40625 -174.12109375 7.40625 C-174.12109375 6.74625 -174.12109375 6.08625 -174.12109375 5.40625 C-172.05531048 3.58775757 -169.98719074 1.89297456 -167.80859375 0.21875 C-166.84735596 -0.52435425 -166.84735596 -0.52435425 -165.86669922 -1.2824707 C-117.35363388 -38.37110185 -47.59453959 -40.18630715 0 0 Z " fill="#EFEFEF" transform="translate(343.12109375,203.59375)"/>
<path d="M0 0 C6.48548507 5.23943998 12.51589471 11.17286297 16.29199219 18.70849609 C16.29199219 19.36849609 16.29199219 20.02849609 16.29199219 20.70849609 C-25.28800781 20.70849609 -66.86800781 20.70849609 -109.70800781 20.70849609 C-104.14122805 6.79154669 -91.68456039 -2.60666342 -78.41113281 -8.78369141 C-53.12199863 -19.08074393 -22.1300498 -16.73355681 0 0 Z " fill="#303435" transform="translate(306.7080078125,241.29150390625)"/>
<path d="M0 0 C19.47 0 38.94 0 59 0 C59 17.49 59 34.98 59 53 C39.53 53 20.06 53 0 53 C0 35.51 0 18.02 0 0 Z " fill="#EDEDED" transform="translate(75,174)"/>
<path d="M0 0 C2.31 0 4.62 0 7 0 C8.71111852 4.39573909 10.42005899 8.79231609 12.12695312 13.18969727 C12.7083802 14.68667686 13.29041028 16.18342239 13.87304688 17.67993164 C14.70860498 19.82637811 15.54201727 21.97364676 16.375 24.12109375 C16.63748535 24.79401962 16.8999707 25.4669455 17.17041016 26.16026306 C19 30.88612829 19 30.88612829 19 32 C17.35 32 15.7 32 14 32 C13.01 29.03 12.02 26.06 11 23 C6.05 23.33 1.1 23.66 -4 24 C-4.99 26.64 -5.98 29.28 -7 32 C-8.65 32 -10.3 32 -12 32 C-9.94400621 24.55838512 -7.29150906 17.49231351 -4.3125 10.375 C-3.68891602 8.86873047 -3.68891602 8.86873047 -3.05273438 7.33203125 C-2.03945904 4.88619424 -1.02183204 2.4422715 0 0 Z " fill="#080808" transform="translate(221,272)"/>
<path d="M0 0 C0 1.65 0 3.3 0 5 C-1.11375 4.505 -1.11375 4.505 -2.25 4 C-8.2530504 2.39918656 -15.10950553 1.53451121 -20.7890625 4.4140625 C-23.31288241 6.22443509 -24.11784874 7.03276394 -25 10 C-25.47235231 14.88097387 -25.52269768 17.02670088 -23.1875 21.375 C-21.08914751 24.14574323 -21.08914751 24.14574323 -18 26 C-14.56692835 26.24270825 -14.56692835 26.24270825 -10.8125 26.125 C-9.54019531 26.10695313 -8.26789063 26.08890625 -6.95703125 26.0703125 C-5.98121094 26.04710937 -5.00539063 26.02390625 -4 26 C-4 23.36 -4 20.72 -4 18 C-6.97 18 -9.94 18 -13 18 C-13 16.68 -13 15.36 -13 14 C-8.38 14 -3.76 14 1 14 C1 18.62 1 23.24 1 28 C-7.46688864 31.22548139 -14.69527232 32.61462624 -23.27734375 28.98046875 C-27.50182484 26.57605888 -29.70020081 22.54929718 -31 18 C-31.67481473 12.03913654 -30.28176679 7.88547806 -27 3 C-20.05774676 -3.76869691 -8.63578228 -3.83812546 0 0 Z " fill="#0C0D0D" transform="translate(274,274)"/>
<path d="M0 0 C1.32 0 2.64 0 4 0 C4 4.29 4 8.58 4 13 C9.94 13 15.88 13 22 13 C22 8.71 22 4.42 22 0 C23.32 0 24.64 0 26 0 C26 10.56 26 21.12 26 32 C24.68 32 23.36 32 22 32 C22 27.05 22 22.1 22 17 C16.06 17 10.12 17 4 17 C4 21.95 4 26.9 4 32 C2.68 32 1.36 32 0 32 C0 21.44 0 10.88 0 0 Z " fill="#010101" transform="translate(283,272)"/>
<path d="M0 0 C0.66 0.33 1.32 0.66 2 1 C0.989375 1.825 -0.02125 2.65 -1.0625 3.5 C-3.66013134 5.7229885 -5.94422726 7.99889918 -8.14453125 10.61328125 C-12.40354199 15.54345353 -16.99679304 20.10629827 -21.625 24.6875 C-22.45773438 25.51572266 -23.29046875 26.34394531 -24.1484375 27.19726562 C-25.74028003 28.78023642 -27.3333863 30.36193778 -28.92797852 31.94213867 C-30.60726389 33.60994784 -32.27679955 35.28634658 -33.94140625 36.96875 C-35.8557072 38.8576238 -37.80321169 40.45411193 -40 42 C-38.43988817 38.5222507 -36.36827674 35.72775973 -34 32.75 C-33.29875 31.85796875 -32.5975 30.9659375 -31.875 30.046875 C-31.25625 29.37140625 -30.6375 28.6959375 -30 28 C-29.34 28 -28.68 28 -28 28 C-28 27.34 -28 26.68 -28 26 C-27.34 26 -26.68 26 -26 26 C-26 25.34 -26 24.68 -26 24 C-25.34 24 -24.68 24 -24 24 C-24 23.34 -24 22.68 -24 22 C-23.34 22 -22.68 22 -22 22 C-21.34 20.68 -20.68 19.36 -20 18 C-19.34 18 -18.68 18 -18 18 C-18 17.34 -18 16.68 -18 16 C-17.34 16 -16.68 16 -16 16 C-16 15.34 -16 14.68 -16 14 C-15.34 14 -14.68 14 -14 14 C-14 13.34 -14 12.68 -14 12 C-13.34 12 -12.68 12 -12 12 C-12 11.34 -12 10.68 -12 10 C-10.23947136 8.41929472 -8.41580202 6.90833714 -6.5625 5.4375 C-5.55316406 4.63183594 -4.54382813 3.82617188 -3.50390625 2.99609375 C-2.67761719 2.33738281 -1.85132813 1.67867188 -1 1 C-0.67 0.67 -0.34 0.34 0 0 Z " fill="#0E1010" transform="translate(106,66)"/>
<path d="M0 0 C2.38125464 2.38125464 3.00186241 4.33857567 4.125 7.5 C4.65480469 8.96953125 4.65480469 8.96953125 5.1953125 10.46875 C6 13 6 13 6 15 C2.04 15 -1.92 15 -6 15 C-5.19093245 12.68624595 -4.37793083 10.37401052 -3.5625 8.0625 C-3.33240234 7.40314453 -3.10230469 6.74378906 -2.86523438 6.06445312 C-1.11328125 1.11328125 -1.11328125 1.11328125 0 0 Z " fill="#E6E6E7" transform="translate(224,277)"/>
</svg>
